<svg xmlns="http://www.w3.org/2000/svg" viewBox="0 0 38 38" width="40" height="40">
    <path d="M4.69571 34.2077L10.2111 32.2538L11.2046 32.7668C13.5036 33.9513 16.131 34.5824 19 34.5824C28.4891 34.5824 35.2857 27.3835 35.2857 18.7321C35.2857 10.0491 28.538 2.88187 19 2.88187C9.462 2.88187 2.71429 10.0491 2.71429 18.7321C2.73032 22.055 3.76082 25.2827 5.65114 27.931L6.56857 29.2279L4.69571 34.2049V34.2077ZM2.77671 37.9254C2.53109 38.0127 2.26704 38.0236 2.01576 37.9568C1.76448 37.89 1.53647 37.7482 1.35866 37.5482C1.18084 37.3482 1.06065 37.0983 1.01229 36.8281C0.963921 36.5579 0.9894 36.2786 1.08571 36.0233L3.48243 29.663C1.2382 26.5155 0.0162364 22.6799 0 18.7321C0 9.18162 7.27971 0 19 0C30.7203 0 38 9.18162 38 18.7321C38 28.2826 30.6443 37.4643 19 37.4643C15.6207 37.4643 12.6024 36.6919 10.0211 35.3605L2.774 37.9254H2.77671Z" />
    <ellipse cx="14.3753" cy="18.4624" rx="2.05405" ry="2.17143" />
    <ellipse cx="19.5005" cy="18.4624" rx="2.05405" ry="2.17143" />
    <ellipse cx="24.6607" cy="18.4624" rx="2.05405" ry="2.17143" />
</svg>