<svg xmlns="http://www.w3.org/2000/svg" viewBox="0 0 38 38" width="40" height="40">
    <path d="M14.8002 1.99531L7.98236 8.99453C7.91904 9.0596 7.84385 9.11123 7.76108 9.14645C7.67831 9.18168 7.5896 9.1998 7.5 9.1998C7.4104 9.1998 7.32168 9.18168 7.23892 9.14645C7.15615 9.11123 7.08096 9.0596 7.01764 8.99453L0.199801 1.99531C0.0718705 1.86398 -1.34797e-09 1.68585 0 1.50012C1.34796e-09 1.31438 0.0718705 1.13625 0.199801 1.00492C0.327731 0.873587 0.501242 0.799805 0.682163 0.799805C0.863084 0.799805 1.03659 0.873587 1.16452 1.00492L7.5 7.50982L13.8355 1.00492C13.8988 0.939891 13.974 0.888306 14.0568 0.853112C14.1395 0.817918 14.2283 0.799805 14.3178 0.799805C14.4074 0.799805 14.4961 0.817918 14.5789 0.853112C14.6617 0.888306 14.7369 0.939891 14.8002 1.00492C14.8635 1.06995 14.9138 1.14715 14.9481 1.23212C14.9824 1.31708 15 1.40815 15 1.50012C15 1.59208 14.9824 1.68315 14.9481 1.76811C14.9138 1.85308 14.8635 1.93028 14.8002 1.99531Z" />
</svg>