<svg xmlns="http://www.w3.org/2000/svg" viewBox="0 0 32 32" width="40" height="40">
    <path style="fill: var(--color, #c91245)" d="M10.915 28.63c1.174-0.864 2.49-1.744 3.942-2.646 1.453-0.899 2.957-1.763 4.512-2.592s3.024-1.555 4.41-2.179c1.453-0.624 2.662-1.331 3.632-2.128 0.966-0.794 1.693-1.606 2.179-2.438 0.483-0.829 0.637-1.626 0.467-2.387-0.173-0.762-0.675-1.453-1.504-2.074-0.829-0.554-1.696-1.245-2.592-2.074-0.899-0.829-1.782-1.693-2.646-2.592-0.867-0.899-1.661-1.814-2.387-2.749s-1.296-1.814-1.712-2.646c-0.765-1.379-1.715-2.086-2.854-2.125-1.142-0.035-2.214 0.33-3.216 1.088-1.005 0.762-1.782 1.763-2.333 3.008-0.554 1.245-0.554 2.49 0 3.734 0.275 0.621 0.794 1.347 1.555 2.179 0.762 0.829 1.59 1.677 2.49 2.541s1.763 1.661 2.592 2.387c0.829 0.726 1.485 1.296 1.971 1.712-2.006 0.899-3.907 1.763-5.706 2.592-1.59 0.762-3.251 1.555-4.979 2.387-1.728 0.829-3.181 1.523-4.355 2.074-1.453 0.691-2.266 1.645-2.438 2.851-0.173 1.21 0.016 2.301 0.57 3.267 0.554 0.97 1.363 1.645 2.438 2.022 1.072 0.381 2.125 0.051 3.165-0.986 0.691-0.621 1.626-1.363 2.8-2.23z"/>
</svg>