<svg xmlns="http://www.w3.org/2000/svg" viewBox="0 0 38 38" width="40" height="40">
  <path d="M29.9799 27.318C33.1406 30.439 36.0901 33.4355 37.9896 35.3207C39.8891 37.2059 37.4198 39.8635 35.3434 37.9652C33.267 36.0669 30.4628 33.0866 27.3355 29.9606C24.3559 32.3476 20.6499 33.646 16.8311 33.6405C7.54032 33.6405 0 26.105 0 16.8203C0 7.53548 7.54032 0 16.8311 0C26.1218 0 33.6621 7.53548 33.6621 16.8203C33.6676 20.6366 32.3684 24.3403 29.9799 27.318ZM26.2284 25.9312C28.6018 23.4921 29.9273 20.2225 29.9219 16.8203C29.9219 9.59129 24.0628 3.73784 16.8311 3.73784C9.59745 3.73784 3.74024 9.59129 3.74024 16.8203C3.74024 24.0474 9.59745 29.9027 16.8311 29.9027C20.2355 29.908 23.5072 28.5834 25.9479 26.2116L26.2284 25.9312Z" />
</svg>