<?xml version="1.0" encoding="UTF-8"?>
<svg id="Layer_1" data-name="Layer 1" xmlns="http://www.w3.org/2000/svg" version="1.1" viewBox="0 0 512 512">
  <defs>
    <style>
      .cls-1 {
        fill: #000;
        stroke-width: 0px;
      }
    </style>
  </defs>
  <polygon class="cls-1" points="258.8 232.4 185 126.9 145.7 126.9 237.1 257.6 248.5 274.1 248.5 274.1 326.8 386 366.1 386 270.2 248.8 258.8 232.4"/>
  <path class="cls-1" d="M256,0C114.6,0,0,114.6,0,256s114.6,256,256,256,256-114.6,256-256S397.4,0,256,0ZM314.7,404.4l-79.2-115.2-99.1,115.2h-25.6l113.4-131.8L110.8,107.6h86.5l75,109.1,93.8-109.1h25.6l-108.1,125.6h0l117.6,171.1h-86.5Z"/>
</svg>